<svg xmlns="http://www.w3.org/2000/svg" viewBox="0 0 58 58">
    <path fill="#961b1e" fill-rule="evenodd" clip-rule="evenodd" d="M18.8 38.8V19.4h5.9v19.4h-5.9zm3-27.5c1.7 0 3.1 1.4 3.1 3.1 0 1.7-1.4 3.1-3.1 3.1-1.7 0-3.1-1.4-3.1-3.1-.1-1.7 1.3-3.1 3.1-3.1zM17.7 3c13.2-5.8 28.6-.6 35.8 11.5H48v5.6h-3.4c1.5 1.3 2 3 2.1 4.6h1.4v8.4c0 .7.1 1.4.3 2 .2.7.6 1.3 1.1 1.8.5.6 1.1 1 1.9 1.4.8.3 1.7.5 2.8.5h1.5c-2.6 7-7.9 13-15.3 16.2-4.8 2.1-9.9 2.7-14.7 2.1L41.4 49l-20.1 7.2c-1.7-.5-3.3-1.1-4.9-1.9 5.5-2.8 10.9-5.7 16.4-8.5l-19.2 6.9c-1.1-.7-2.1-1.5-3.1-2.3 4.9-2.5 9.8-5.1 14.7-7.6-5.5 2-11 3.9-16.5 5.9-1-1-1.8-2-2.6-3.1 3.7-1.9 7.3-3.8 11-5.7-4 1.4-8 2.9-12 4.3-.8-1.2-1.5-2.5-2.1-3.9l13.2-6.8-13.9 5c-.5-1.3-.8-2.6-1.1-3.9 5.1-2.6 10.2-5.3 15.4-7.9C11.3 28.6 6 30.5.8 32.3c-.2-1.3-.2-2.7-.2-4C6 25.6 11.4 22.8 16.7 20L.8 25.7c.2-1.7.5-3.3 1-4.9 4.9-2.5 9.8-5.1 14.8-7.6-4.6 1.7-9.2 3.3-13.8 5 .7-1.8 1.6-3.5 2.7-5.1l18-9.3L8.7 9.1c2.5-2.5 5.5-4.6 9-6.1zM54 15.5c.4.7.7 1.4 1.1 2.2.4.8.7 1.6.9 2.4h-2v-4.6zm3.1 9.2c.5 3.1.4 6.2-.1 9.2h-1.8c-.8 0-1.2-.4-1.2-1.2v-8h3.1zM38.5 38.8V27.2c0-.6-.1-1-.3-1.4-.2-.3-.4-.6-.6-.8-.3-.2-.5-.3-.8-.4-.3-.1-.5-.1-.7-.1-.2 0-.4 0-.7.1-.3.1-.5.2-.8.4-.3.2-.5.5-.6.8-.2.3-.3.8-.3 1.4v11.7h-5.9V19.3h5.8v1.6c.6-.6 1.3-1.1 2.1-1.4.8-.3 1.6-.5 2.4-.5.9 0 1.7.1 2.5.4.7.3 1.4.7 1.9 1.2.8.8 1.4 1.7 1.6 2.6.2.9.3 1.9.3 2.9v12.5h-5.9v.2z"/>
</svg>